#Comment line ignore any data following # character 
#Hierarchical Translation and Rotation (.htr) file 
[Header]	
#Header keywords are followed by a single value 
FileType HTR		#Single word string
DataType HTRS		#Translation followed by rotation and scale data
FileVersion 1		#integer
NumSegments 64		#integer
NumFrames 3		#integer
DataFrameRate 30		#integer, data frame rate in this file
EulerRotationOrder ZYX
CalibrationUnits mm
RotationUnits Degrees
GlobalAxisofGravity Y
BoneLengthAxis Y
ScaleFactor 1.00
[SegmentNames&Hierarchy]
#CHILD	PARENT
Pinger_Root GLOBAL
Pelvis Pinger_Root
L_Hip Pelvis
R_Hip Pelvis
Rear_Leg01 Pelvis
Spine1 Pelvis
L_Leg01 L_Hip
L_Leg02 L_Leg01
L_Leg03 L_Leg02
L_Foot L_Leg03
L_Toe1_01 L_Foot
L_Toe2_01 L_Foot
L_Toe3_01 L_Foot
planeAlignerLeft L_Foot
L_Toe1_02 L_Toe1_01
L_Toe1_03 L_Toe1_02
L_Toe2_02 L_Toe2_01
L_Toe2_03 L_Toe2_02
L_Toe3_02 L_Toe3_01
L_Toe3_03 L_Toe3_02
planeLockWeightLeft planeAlignerLeft
R_Leg01 R_Hip
R_Leg02 R_Leg01
R_Leg03 R_Leg02
R_Foot R_Leg03
planeAlignerRight R_Foot
R_Toe1_01 R_Foot
R_Toe2_01 R_Foot
R_Toe3_01 R_Foot
planeLockWeightRight planeAlignerRight
R_Toe1_02 R_Toe1_01
R_Toe1_03 R_Toe1_02
R_Toe2_02 R_Toe2_01
R_Toe2_03 R_Toe2_02
R_Toe3_02 R_Toe3_01
R_Toe3_03 R_Toe3_02
Rear_Leg02 Rear_Leg01
Rear_Leg03 Rear_Leg02
Rear_Leg04 Rear_Leg03
Rear_Foot Rear_Leg04
planeAlignerCenter Rear_Foot
Rear_Toe1_01 Rear_Foot
Rear_Toe2_01 Rear_Foot
Rear_Toe3_01 Rear_Foot
planeLockWeightCenter planeAlignerCenter
Rear_Toe1_02 Rear_Toe1_01
Rear_Toe1_03 Rear_Toe1_02
Rear_Toe2_02 Rear_Toe2_01
Rear_Toe2_03 Rear_Toe2_02
Rear_Toe3_02 Rear_Toe3_01
Rear_Toe3_03 Rear_Toe3_02
Back_Bone Spine1
Head Spine1
Motor_Bone Back_Bone
Ping_Mechanism Back_Bone
BN_LookIK Head
bottomMouth Head
L_Mouth01 Head
L_mouthFront Head
mouthGun Head
R_Mouth01 Head
R_mouthFront Head
TopMouth Head
weapon_bone Head
[BasePosition]
#SegmentName Tx, Ty, Tz, Rx, Ry, Rz, BoneLength
Pinger_Root 0.000000 0.000000 0.000000 -90.000000 0.000000 0.000000 10.000000 
Pelvis 0.000000 0.000000 0.000000 0.000000 0.000000 0.000000 10.000000 
L_Hip 0.000000 0.000000 0.000000 0.000000 0.000000 0.000000 10.000000 
R_Hip 0.000000 0.000000 0.000000 0.000000 0.000000 0.000000 10.000000 
Rear_Leg01 0.000000 0.000000 0.000000 0.000000 0.000000 0.000000 10.000000 
Spine1 0.000000 0.000000 0.000000 0.000000 0.000000 0.000000 10.000000 
L_Leg01 0.000000 0.000000 0.000000 0.000000 0.000000 0.000000 10.000000 
L_Leg02 0.000000 0.000000 0.000000 0.000000 0.000000 0.000000 10.000000 
L_Leg03 0.000000 0.000000 0.000000 0.000000 0.000000 0.000000 10.000000 
L_Foot 0.000000 0.000000 0.000000 0.000000 0.000000 0.000000 10.000000 
L_Toe1_01 0.000000 0.000000 0.000000 0.000000 0.000000 0.000000 10.000000 
L_Toe2_01 0.000000 0.000000 0.000000 0.000000 0.000000 0.000000 10.000000 
L_Toe3_01 0.000000 0.000000 0.000000 0.000000 0.000000 0.000000 10.000000 
planeAlignerLeft 0.000000 0.000000 0.000000 0.000000 0.000000 0.000000 10.000000 
L_Toe1_02 0.000000 0.000000 0.000000 0.000000 0.000000 0.000000 10.000000 
L_Toe1_03 0.000000 0.000000 0.000000 0.000000 0.000000 0.000000 10.000000 
L_Toe2_02 0.000000 0.000000 0.000000 0.000000 0.000000 0.000000 10.000000 
L_Toe2_03 0.000000 0.000000 0.000000 0.000000 0.000000 0.000000 10.000000 
L_Toe3_02 0.000000 0.000000 0.000000 0.000000 0.000000 0.000000 10.000000 
L_Toe3_03 0.000000 0.000000 0.000000 0.000000 0.000000 0.000000 10.000000 
planeLockWeightLeft 0.000000 0.000000 0.000000 0.000000 0.000000 0.000000 10.000000 
R_Leg01 0.000000 0.000000 0.000000 0.000000 0.000000 0.000000 10.000000 
R_Leg02 0.000000 0.000000 0.000000 0.000000 0.000000 0.000000 10.000000 
R_Leg03 0.000000 0.000000 0.000000 0.000000 0.000000 0.000000 10.000000 
R_Foot 0.000000 0.000000 0.000000 0.000000 0.000000 0.000000 10.000000 
planeAlignerRight 0.000000 0.000000 0.000000 0.000000 0.000000 0.000000 10.000000 
R_Toe1_01 0.000000 0.000000 0.000000 0.000000 0.000000 0.000000 10.000000 
R_Toe2_01 0.000000 0.000000 0.000000 0.000000 0.000000 0.000000 10.000000 
R_Toe3_01 0.000000 0.000000 0.000000 0.000000 0.000000 0.000000 10.000000 
planeLockWeightRight 0.000000 0.000000 0.000000 0.000000 0.000000 0.000000 10.000000 
R_Toe1_02 0.000000 0.000000 0.000000 0.000000 0.000000 0.000000 10.000000 
R_Toe1_03 0.000000 0.000000 0.000000 0.000000 0.000000 0.000000 10.000000 
R_Toe2_02 0.000000 0.000000 0.000000 0.000000 0.000000 0.000000 10.000000 
R_Toe2_03 0.000000 0.000000 0.000000 0.000000 0.000000 0.000000 10.000000 
R_Toe3_02 0.000000 0.000000 0.000000 0.000000 0.000000 0.000000 10.000000 
R_Toe3_03 0.000000 0.000000 0.000000 0.000000 0.000000 0.000000 10.000000 
Rear_Leg02 0.000000 0.000000 0.000000 0.000000 0.000000 0.000000 10.000000 
Rear_Leg03 0.000000 0.000000 0.000000 0.000000 0.000000 0.000000 10.000000 
Rear_Leg04 0.000000 0.000000 0.000000 0.000000 0.000000 0.000000 10.000000 
Rear_Foot 0.000000 0.000000 0.000000 0.000000 0.000000 0.000000 10.000000 
planeAlignerCenter 0.000000 0.000000 0.000000 0.000000 0.000000 0.000000 10.000000 
Rear_Toe1_01 0.000000 0.000000 0.000000 0.000000 0.000000 0.000000 10.000000 
Rear_Toe2_01 0.000000 0.000000 0.000000 0.000000 0.000000 0.000000 10.000000 
Rear_Toe3_01 0.000000 0.000000 0.000000 0.000000 0.000000 0.000000 10.000000 
planeLockWeightCenter 0.000000 0.000000 0.000000 0.000000 0.000000 0.000000 10.000000 
Rear_Toe1_02 0.000000 0.000000 0.000000 0.000000 0.000000 0.000000 10.000000 
Rear_Toe1_03 0.000000 0.000000 0.000000 0.000000 0.000000 0.000000 10.000000 
Rear_Toe2_02 0.000000 0.000000 0.000000 0.000000 0.000000 0.000000 10.000000 
Rear_Toe2_03 0.000000 0.000000 0.000000 0.000000 0.000000 0.000000 10.000000 
Rear_Toe3_02 0.000000 0.000000 0.000000 0.000000 0.000000 0.000000 10.000000 
Rear_Toe3_03 0.000000 0.000000 0.000000 0.000000 0.000000 0.000000 10.000000 
Back_Bone 0.000000 0.000000 0.000000 0.000000 0.000000 0.000000 10.000000 
Head 0.000000 0.000000 0.000000 0.000000 0.000000 0.000000 10.000000 
Motor_Bone 0.000000 0.000000 0.000000 0.000000 0.000000 0.000000 10.000000 
Ping_Mechanism 0.000000 0.000000 0.000000 0.000000 0.000000 0.000000 10.000000 
BN_LookIK 0.000000 0.000000 0.000000 0.000000 0.000000 0.000000 10.000000 
bottomMouth 0.000000 0.000000 0.000000 0.000000 0.000000 0.000000 10.000000 
L_Mouth01 0.000000 0.000000 0.000000 0.000000 0.000000 0.000000 10.000000 
L_mouthFront 0.000000 0.000000 0.000000 0.000000 0.000000 0.000000 10.000000 
mouthGun 0.000000 0.000000 0.000000 0.000000 0.000000 0.000000 10.000000 
R_Mouth01 0.000000 0.000000 0.000000 0.000000 0.000000 0.000000 10.000000 
R_mouthFront 0.000000 0.000000 0.000000 0.000000 0.000000 0.000000 10.000000 
TopMouth 0.000000 0.000000 0.000000 0.000000 0.000000 0.000000 10.000000 
weapon_bone 0.000000 0.000000 0.000000 0.000000 0.000000 0.000000 10.000000 
#Beginning of Data. Separated by tabs
#Fr	Tx	Ty	Tz	Rx	Ry	Rz	SF
[Pinger_Root]
36 0.000000 0.000000 0.000000 -0.000075 -0.000000 -0.000020 0.000000
37 0.000000 0.000000 0.000000 -0.000075 -0.000000 -0.000020 0.000000
38 0.000000 0.000000 0.000000 -0.000075 -0.000000 -0.000020 0.000000
[Pelvis]
36 -88.199074 -26.977985 3590.277100 -112.707077 -81.297874 105.225479 3591.461670
37 -50.548626 107.155220 3632.593750 -88.767479 -83.042152 82.828568 3634.525391
38 15.792649 250.478531 3693.950684 -59.362766 -83.980537 55.144260 3702.466797
[L_Hip]
36 5.766392 125.831482 872.656799 -166.058350 -57.819733 80.070366 881.701050
37 5.766392 125.831482 872.656799 -172.818573 -57.477669 87.862877 881.701050
38 5.766392 125.831482 872.656799 -179.328705 -56.655411 95.408356 881.701050
[R_Hip]
36 5.765438 125.836372 -872.654907 -152.044815 85.319435 -74.678116 881.699829
37 5.765438 125.836372 -872.654907 -161.597046 81.009201 -83.794136 881.699829
38 5.765438 125.836372 -872.654907 -169.534149 80.973877 -91.277550 881.699829
[Rear_Leg01]
36 -192.298416 -925.602966 -0.001907 125.120628 -3.792889 -137.076965 945.367432
37 -192.298416 -925.602966 -0.001907 128.284149 -3.103812 -135.411575 945.367432
38 -192.298416 -925.602966 -0.001907 131.080765 -2.557611 -132.419693 945.367432
[Spine1]
36 290.604584 5.007505 0.000477 9.207276 -0.020467 15.913663 290.647736
37 290.604584 5.007505 0.000477 6.663206 -2.268202 17.093643 290.647736
38 290.604584 5.007505 0.000477 4.082029 -3.841762 18.967196 290.647736
[L_Leg01]
36 761.932007 -0.002384 -0.069261 20.339254 -39.479149 -11.914700 761.932068
37 761.932007 -0.002384 -0.069261 21.759781 -39.714283 -13.823636 761.932068
38 761.932007 -0.002384 -0.069261 25.563242 -39.131950 -17.588594 761.932068
[L_Leg02]
36 1441.140503 -0.000954 -0.000715 0.010206 0.061284 -117.501808 1441.140503
37 1441.140503 -0.000954 -0.000715 -0.032855 0.047269 -116.846985 1441.140503
38 1441.140503 -0.000954 -0.000715 -0.223552 0.106479 -114.521919 1441.140503
[L_Leg03]
36 1686.963989 -0.000715 -0.000954 0.009230 -0.001432 107.642868 1686.963989
37 1686.963989 -0.000715 -0.000954 0.009228 -0.001446 107.816200 1686.963989
38 1686.963989 -0.000715 -0.000954 0.009226 -0.001460 107.989510 1686.963989
[L_Foot]
36 3041.570068 -30.715107 11.297464 -2.474846 3.180953 33.358677 3041.746094
37 3041.570068 -30.715107 11.297464 -2.554379 3.245672 35.013252 3041.746094
38 3041.570068 -30.715107 11.297464 -3.119171 3.349977 36.247818 3041.746094
[L_Toe1_01]
36 -188.216690 -224.732346 -21.137953 94.280670 -28.131250 179.902283 293.899567
37 -188.216690 -224.732346 -21.137953 94.280670 -28.131250 179.902283 293.899567
38 -188.216690 -224.732346 -21.137953 94.280670 -28.131250 179.902283 293.899567
[L_Toe2_01]
36 200.746536 -219.926590 148.838394 -108.981239 -14.926402 -28.372051 332.896027
37 200.746536 -219.926590 148.838394 -108.981232 -14.926327 -28.372147 332.896027
38 200.746536 -219.926590 148.838394 -108.981216 -14.926253 -28.372246 332.896027
[L_Toe3_01]
36 188.832520 -219.859131 -191.078659 -119.528816 36.514465 -78.862701 347.140900
37 188.832520 -219.859131 -191.078659 -119.528816 36.514465 -78.862701 347.140900
38 188.832520 -219.859131 -191.078659 -119.528816 36.514465 -78.862701 347.140900
[planeAlignerLeft]
36 0.812531 -811.448792 -0.314951 0.000000 -90.000000 -90.001900 811.449280
37 0.812531 -811.448792 -0.314951 0.000000 -90.000000 -90.001900 811.449280
38 0.812531 -811.448792 -0.314951 0.000000 -90.000000 -90.001900 811.449280
[L_Toe1_02]
36 413.761139 0.000477 0.000000 0.001661 0.070897 0.001661 413.761139
37 413.761139 0.000477 0.000000 0.001661 0.070897 0.001661 413.761139
38 413.761139 0.000477 0.000000 0.001661 0.070897 0.001661 413.761139
[L_Toe1_03]
36 464.317322 0.000358 -0.000089 0.001673 -0.448396 -0.003292 464.317322
37 464.317322 0.000358 -0.000089 0.001673 -0.448396 -0.003292 464.317322
38 464.317322 0.000358 -0.000089 0.001673 -0.448396 -0.003292 464.317322
[L_Toe2_02]
36 342.235809 -0.000477 0.000238 0.004684 -81.236458 0.004684 342.235809
37 342.235809 -0.000477 0.000238 0.004684 -81.236794 0.004684 342.235809
38 342.235809 -0.000477 0.000238 0.004684 -81.237106 0.004684 342.235809
[L_Toe2_03]
36 420.210846 -0.000715 0.000000 179.993195 44.163803 -179.999222 420.210846
37 420.210846 -0.000715 0.000000 179.993195 44.163803 -179.999222 420.210846
38 420.210846 -0.000715 0.000000 179.993195 44.163803 -179.999222 420.210846
[L_Toe3_02]
36 329.270111 0.000954 0.000000 0.004675 -84.667809 0.004675 329.270111
37 329.270111 0.000954 0.000000 0.004675 -84.667213 0.004675 329.270111
38 329.270111 0.000954 0.000000 0.004675 -84.666489 0.004675 329.270111
[L_Toe3_03]
36 439.137451 -0.001907 0.000954 179.993454 37.691116 -179.998764 439.137451
37 439.137451 -0.001907 0.000954 179.993454 37.691116 -179.998764 439.137451
38 439.137451 -0.001907 0.000954 179.993454 37.691116 -179.998764 439.137451
[planeLockWeightLeft]
36 -0.000954 0.000238 -0.000305 -0.011826 -0.004376 0.005620 0.001029
37 -0.000954 0.000238 -0.000305 -0.011826 -0.004376 0.005620 0.001029
38 -0.000954 0.000238 -0.000305 -0.011826 -0.004376 0.005620 0.001029
[R_Leg01]
36 761.455627 -0.001907 -0.000358 83.884789 -45.001617 81.208641 761.455688
37 761.455627 -0.001907 -0.000358 79.280045 -43.095486 80.855278 761.455688
38 761.455627 -0.001907 -0.000358 80.551765 -36.838295 74.962891 761.455688
[R_Leg02]
36 1441.140625 0.000000 -0.000238 -0.800449 -0.018166 -116.461555 1441.140625
37 1441.140625 0.000000 -0.000238 -1.162062 -0.117101 -119.190331 1441.140625
38 1441.140625 0.000000 -0.000238 -1.611521 -0.339541 -120.936134 1441.140625
[R_Leg03]
36 1686.963989 0.000954 0.001431 0.053541 -0.024117 124.817963 1686.963989
37 1686.963989 0.000954 0.001431 0.068001 -0.035065 128.794922 1686.963989
38 1686.963989 0.000954 0.001431 0.089964 -0.049879 134.326996 1686.963989
[R_Foot]
36 3041.560059 -30.531288 -11.204481 -1.189870 -27.419525 37.361233 3041.734131
37 3041.560059 -30.531288 -11.204481 -1.235415 -27.634548 38.371765 3041.734131
38 3041.560059 -30.531288 -11.204481 -1.847047 -28.082985 40.155266 3041.734131
[planeAlignerRight]
36 -0.635147 -812.270569 -0.364304 0.000000 -89.960434 -90.005180 812.270874
37 -0.635147 -812.270569 -0.364304 0.000000 -89.960434 -90.005180 812.270874
38 -0.635147 -812.270569 -0.364304 0.000000 -89.960434 -90.005180 812.270874
[R_Toe1_01]
36 -188.383347 -224.864899 21.052242 77.137634 -2.700150 170.997559 294.101532
37 -188.383347 -224.864899 21.052242 77.157799 -2.747173 170.816635 294.101532
38 -188.383347 -224.864899 21.052242 77.178131 -2.794134 170.635712 294.101532
[R_Toe2_01]
36 200.637817 -220.002121 -148.787384 -85.133698 32.627293 -47.433712 332.857574
37 200.637817 -220.002121 -148.787384 -85.057304 32.621841 -47.298584 332.857574
38 200.637817 -220.002121 -148.787384 -84.980934 32.616238 -47.163483 332.857574
[R_Toe3_01]
36 188.606735 -220.092957 191.126343 -73.582558 -7.544245 -63.151794 347.192566
37 188.606735 -220.092957 191.126343 -73.574181 -7.583786 -63.021965 347.192566
38 188.606735 -220.092957 191.126343 -73.565887 -7.623343 -62.892124 347.192566
[planeLockWeightRight]
36 -0.000477 0.000000 0.000000 -0.011823 -0.004379 -0.000027 0.000477
37 -0.000477 0.000000 0.000000 -0.011823 -0.004379 -0.000027 0.000477
38 -0.000477 0.000000 0.000000 -0.011823 -0.004379 -0.000027 0.000477
[R_Toe1_02]
36 413.762085 0.000477 -0.000119 0.001461 -16.882498 0.001461 413.762085
37 413.762085 0.000477 -0.000119 0.001462 -16.828945 0.001462 413.762085
38 413.762085 0.000477 -0.000119 0.001462 -16.775394 0.001462 413.762085
[R_Toe1_03]
36 464.317810 0.000000 0.001088 -179.995605 79.286324 -179.992081 464.317810
37 464.317810 0.000000 0.001088 -179.995697 79.100479 -179.992188 464.317810
38 464.317810 0.000000 0.001088 -179.995819 78.914696 -179.992294 464.317810
[R_Toe2_02]
36 342.234741 -0.000954 0.000238 0.001231 -54.923569 0.001231 342.234741
37 342.234741 -0.000954 0.000238 0.001231 -54.957962 0.001231 342.234741
38 342.234741 -0.000954 0.000238 0.001231 -54.992355 0.001231 342.234741
[R_Toe2_03]
36 420.210846 0.000715 -0.000268 -0.003671 53.380432 0.000012 420.210846
37 420.210846 0.000715 -0.000268 -0.003673 53.427055 0.000010 420.210846
38 420.210846 0.000715 -0.000268 -0.003675 53.473679 0.000007 420.210846
[R_Toe3_02]
36 329.270355 -0.000477 -0.000954 0.001189 -71.611435 0.001189 329.270355
37 329.270355 -0.000477 -0.000954 0.001189 -71.650078 0.001189 329.270355
38 329.270355 -0.000477 -0.000954 0.001189 -71.688751 0.001189 329.270355
[R_Toe3_03]
36 439.137939 0.000238 0.001431 0.010186 76.767860 0.010186 439.137939
37 439.137939 0.000238 0.001431 0.010248 76.848480 0.010248 439.137939
38 439.137939 0.000238 0.001431 0.010311 76.929146 0.010311 439.137939
[Rear_Leg02]
36 1162.777710 -0.029802 0.005960 -6.603816 52.651142 -103.913383 1162.777710
37 1162.777710 -0.029802 0.005960 2.088005 52.913105 -92.965294 1162.777710
38 1162.777710 -0.029802 0.005960 11.981883 51.968662 -79.002747 1162.777710
[Rear_Leg03]
36 607.192505 -0.013351 -0.073195 0.006511 -0.001998 62.334419 607.192505
37 607.192505 -0.013351 -0.073195 0.006556 -0.001844 59.625393 607.192505
38 607.192505 -0.013351 -0.073195 0.006607 -0.001652 56.295338 607.192505
[Rear_Leg04]
36 995.874512 -0.020504 -0.011921 -0.039991 -0.016500 54.429974 995.874573
37 995.874512 -0.020504 -0.011921 -0.039235 -0.018224 49.445576 995.874573
38 995.874512 -0.020504 -0.011921 -0.036426 -0.015591 43.657341 995.874573
[Rear_Foot]
36 3096.176270 -0.067472 -0.041425 99.232277 43.381607 -59.521091 3096.176270
37 3096.176270 -0.067472 -0.041425 100.120300 43.233154 -57.099506 3096.176270
38 3096.176270 -0.067472 -0.041425 101.601929 42.572147 -54.071671 3096.176270
[planeAlignerCenter]
36 0.350077 0.966311 -838.790894 0.000009 0.000003 -179.999985 838.791565
37 0.350077 0.966311 -838.790894 0.000009 0.000003 -179.999985 838.791565
38 0.350077 0.966311 -838.790894 0.000009 0.000003 -179.999985 838.791565
[Rear_Toe1_01]
36 0.653352 83.966492 -371.173737 -30.744953 22.786510 86.612030 380.553192
37 0.653352 83.966492 -371.173737 -30.745268 22.786150 86.611580 380.553192
38 0.653352 83.966492 -371.173737 -30.745575 22.785786 86.611122 380.553192
[Rear_Toe2_01]
36 178.200760 -294.826019 -362.060547 -8.139914 -0.247181 -62.273521 499.765686
37 178.200760 -294.826019 -362.060547 -8.140027 -0.247460 -62.271267 499.765686
38 178.200760 -294.826019 -362.060547 -8.140141 -0.247739 -62.268997 499.765686
[Rear_Toe3_01]
36 -153.359680 -308.780914 -362.060852 3.735633 13.491616 -102.753555 499.952881
37 -153.359680 -308.780914 -362.060852 3.735658 13.492181 -102.750809 499.952881
38 -153.359680 -308.780914 -362.060852 3.735682 13.492743 -102.748070 499.952881
[planeLockWeightCenter]
36 -0.000062 0.000238 0.000000 -0.011814 -0.004373 -0.000015 0.000246
37 -0.000062 0.000238 0.000000 -0.011814 -0.004373 -0.000015 0.000246
38 -0.000062 0.000238 0.000000 -0.011814 -0.004373 -0.000015 0.000246
[Rear_Toe1_02]
36 379.707825 0.194073 0.000477 -0.006719 -30.019583 -0.006719 379.707855
37 379.707825 0.194073 0.000477 -0.006719 -30.019583 -0.006719 379.707855
38 379.707825 0.194073 0.000477 -0.006719 -30.019583 -0.006719 379.707855
[Rear_Toe1_03]
36 500.129700 0.165701 0.000119 -179.994812 70.631310 -179.998352 500.129761
37 500.129700 0.165701 0.000119 -179.994812 70.633987 -179.998352 500.129761
38 500.129700 0.165701 0.000119 -179.994812 70.636620 -179.998352 500.129761
[Rear_Toe2_02]
36 340.494507 0.000238 -0.000954 0.001661 0.061734 0.001661 340.494507
37 340.494507 0.000238 -0.000954 0.001661 0.061589 0.001661 340.494507
38 340.494507 0.000238 -0.000954 0.001661 0.061444 0.001661 340.494507
[Rear_Toe2_03]
36 433.103577 0.000000 0.000238 -0.003297 -0.804494 0.001683 433.103546
37 433.103577 0.000000 0.000238 -0.003297 -0.804494 0.001683 433.103546
38 433.103577 0.000000 0.000238 -0.003297 -0.804494 0.001683 433.103546
[Rear_Toe3_02]
36 340.494141 -0.000358 -0.000477 -0.002600 -36.654480 -0.002600 340.494171
37 340.494141 -0.000358 -0.000477 -0.002600 -36.654480 -0.002600 340.494171
38 340.494141 -0.000358 -0.000477 -0.002600 -36.654480 -0.002600 340.494171
[Rear_Toe3_03]
36 433.103577 0.001431 -0.000238 0.006396 30.714851 -0.001650 433.103546
37 433.103577 0.001431 -0.000238 0.006396 30.714851 -0.001650 433.103546
38 433.103577 0.001431 -0.000238 0.006396 30.714851 -0.001650 433.103546
[Back_Bone]
36 1312.175781 -701.934692 0.000954 6.804388 -17.059132 -90.591187 1488.125488
37 1312.175781 -701.934692 0.000954 6.658464 -15.819158 -90.909981 1488.125488
38 1312.175781 -701.934692 0.000954 6.417225 -14.557252 -90.531898 1488.125488
[Head]
36 1406.159424 809.709290 0.001431 -0.265301 -1.539291 30.948847 1622.625488
37 1406.159424 809.709290 0.001431 -0.107102 -1.552124 28.157103 1622.625488
38 1406.159424 809.709290 0.001431 0.287634 -1.559363 25.512695 1622.625488
[Motor_Bone]
36 1158.364380 -417.834747 0.000477 -7.542724 -15.451024 -108.831650 1231.419434
37 1158.364380 -417.834747 0.000477 -6.802870 -14.779462 -109.152611 1231.419434
38 1158.364380 -417.834747 0.000477 -5.961732 -13.699236 -109.554886 1231.419434
[Ping_Mechanism]
36 1251.147095 -448.986572 -19.734779 0.000103 -0.000053 82.120995 1329.416260
37 1248.521729 -444.890198 -2.283363 0.000103 -0.000053 82.120995 1325.420288
38 1242.359253 -440.261932 12.648717 0.000103 -0.000053 82.120995 1318.122559
[BN_LookIK]
36 193.241119 1380.371704 -0.002861 0.000000 89.965736 -31.038179 1393.832153
37 193.241119 1380.371704 -0.002861 0.000000 89.965736 -31.038179 1393.832153
38 193.241119 1380.371704 -0.002861 0.000000 89.965736 -31.038179 1393.832153
[bottomMouth]
36 -435.092926 615.759399 -0.000954 -0.000022 0.000016 73.527184 753.966492
37 -435.092926 615.759399 -0.000954 -0.000022 0.000016 73.527184 753.966492
38 -435.092926 615.759399 -0.000954 -0.000022 0.000016 73.527184 753.966492
[L_Mouth01]
36 554.440979 7.658243 838.222046 150.204178 23.759130 109.605339 1005.027161
37 554.440979 7.658243 838.222046 150.204178 23.759130 109.605339 1005.027161
38 554.440979 7.658243 838.222046 150.204178 23.759130 109.605339 1005.027161
[L_mouthFront]
36 551.629089 934.514771 339.150421 0.000081 2.804060 79.119301 1136.941284
37 551.629089 934.514771 339.150421 0.000081 2.804060 79.119301 1136.941284
38 551.629089 934.514771 339.150421 0.000081 2.804060 79.119301 1136.941284
[mouthGun]
36 55.332661 1627.420898 0.000000 0.000023 0.000009 -11.038128 1628.361328
37 55.332661 1627.420898 0.000000 0.000023 0.000009 -11.038128 1628.361328
38 55.332661 1627.420898 0.000000 0.000023 0.000009 -11.038128 1628.361328
[R_Mouth01]
36 554.442383 7.659197 -838.223938 29.795891 -23.759109 109.605331 1005.029541
37 554.442383 7.659197 -838.223938 29.795891 -23.759109 109.605331 1005.029541
38 554.442383 7.659197 -838.223938 29.795891 -23.759109 109.605331 1005.029541
[R_mouthFront]
36 551.629089 934.514282 -339.151367 0.000029 -2.803930 79.119133 1136.941162
37 551.629089 934.514282 -339.151367 0.000029 -2.803930 79.119133 1136.941162
38 551.629089 934.514282 -339.151367 0.000029 -2.803930 79.119133 1136.941162
[TopMouth]
36 461.269867 -56.106091 -0.008583 -0.000059 -0.000268 92.025169 464.669525
37 461.269867 -56.106091 -0.008583 -0.000059 -0.000268 92.025169 464.669525
38 461.269867 -56.106091 -0.008583 -0.000059 -0.000268 92.025169 464.669525
[weapon_bone]
36 -987.239868 1448.372803 0.001431 0.000000 89.965736 -31.038221 1752.833740
37 -987.239868 1448.372803 0.001431 0.000000 89.965736 -31.038221 1752.833740
38 -987.239868 1448.372803 0.001431 0.000000 89.965736 -31.038221 1752.833740
